<?xml version="1.0" encoding="utf-8"?>
<!-- Generator: Adobe Illustrator 27.0.0, SVG Export Plug-In . SVG Version: 6.00 Build 0)  -->
<svg version="1.1" id="Layer_1" xmlns="http://www.w3.org/2000/svg" xmlns:xlink="http://www.w3.org/1999/xlink" x="0px" y="0px"
	 viewBox="0 0 429 143.4" style="enable-background:new 0 0 429 143.4;" xml:space="preserve">
<style type="text/css">
	.st0{fill:#F0EFEC;stroke:#000000;stroke-width:7;stroke-miterlimit:10;}
	.st1{fill:#29ABE2;}
	.st2{fill:#FFFFFF;stroke:#000000;stroke-width:7;stroke-miterlimit:10;}
	.st3{fill:#C7B299;stroke:#000000;stroke-width:7;stroke-miterlimit:10;}
</style>
<circle class="st0" cx="72.3" cy="74.1" r="63.4"/>
<g>
	<path class="st1" d="M134.5,88.7c0.1-0.3,0-0.6-0.2-0.9c-0.3-0.5-1.1-0.7-1.6-0.4c-0.4,0.2-1.5,0.8-3.1,1.2l-0.8,0.2V63.4l0.8,0.2
		c1.9,0.5,3,1.2,3.1,1.3c0.6,0.3,1.3,0.2,1.6-0.4c0.3-0.5,0.2-1.3-0.4-1.6c-0.2-0.1-15.4-8.9-30.7,10.8l-0.5,0.6l-0.5-0.6
		c-0.9-1-1.8-2-2.7-2.9C85.5,56.6,71.3,60,70.7,60.2c-0.5,0.1-0.9,0.6-0.9,1.1c0,0.1,0,0.2,0,0.3c0.1,0.5,0.9,1,1.4,0.8
		c0.3-0.1,1.7-0.4,3.9-0.4h0.6v28.1h-0.6c-2.2,0-3.6-0.3-3.9-0.4c-0.6-0.2-1.3,0.2-1.5,0.9c0,0.1,0,0.2,0,0.3c0,0.3,0.1,0.6,0.4,0.8
		c0.2,0.2,0.3,0.3,0.5,0.3c0.7,0.2,16.7,4,31.6-13.5l0.5-0.6l0.5,0.6c1.3,1.6,2.6,3.1,3.9,4.5l0,0c14,14,26.7,6.4,26.8,6.3
		C134.2,89.2,134.4,89,134.5,88.7z M87.8,87.2c-2.6,1.3-5.3,2.1-8,2.6L78,89.9V62.3l1.8,0.2c2.7,0.5,5.4,1.3,8.1,2.6l1.2,0.4
		l-0.1,21L87.8,87.2z M92.5,84.4l-0.9,0.7V67.2l0.9,0.7c3,2.1,5.9,4.8,8.5,7.9l0.3,0.4l-0.3,0.4C98.3,79.7,95.5,82.3,92.5,84.4z
		 M111.5,83.8c-2.4-1.9-4.7-4.4-6.9-7.3l-0.3-0.4l0.3-0.4c2.2-2.9,4.5-5.4,6.9-7.3l1.6-1.3v18L111.5,83.8z M124.9,89.2
		c-2.9,0-5.9-0.8-8.7-2.3l-0.7-0.5l-0.1-20.8l0.7-0.4c2.9-1.5,5.8-2.3,8.7-2.3h1.2l0.2,26.1L124.9,89.2z"/>
</g>
<g>
	<path class="st1" d="M8.9,62.7c-0.1,0.3,0,0.7,0.2,0.9c0.4,0.6,1.2,0.8,1.8,0.4c0.4-0.2,1.6-0.9,3.3-1.3l0.8-0.2v27.4l-0.8-0.2
		c-2.1-0.6-3.3-1.3-3.3-1.4c-0.6-0.4-1.4-0.2-1.8,0.4c-0.4,0.6-0.2,1.4,0.4,1.8c0.2,0.1,16.6,9.6,33.1-11.6l0.5-0.6l0.5,0.6
		c0.9,1.1,1.9,2.1,2.9,3.1C61.7,97.2,77,93.5,77.6,93.3c0.6-0.1,1-0.7,1-1.2c0-0.1,0-0.2,0-0.3c-0.1-0.6-1-1-1.5-0.9
		c-0.3,0.1-1.8,0.4-4.2,0.4h-0.7V61.1h0.7c2.4,0,3.9,0.4,4.2,0.4c0.7,0.2,1.4-0.2,1.6-0.9c0-0.1,0-0.2,0-0.3c0-0.3-0.2-0.7-0.4-0.9
		C78,59.1,77.8,59,77.6,59c-0.7-0.2-18-4.3-34.1,14.5L43,74.1l-0.5-0.6c-1.4-1.8-2.8-3.4-4.2-4.8l0,0c-15-15.1-28.7-6.9-28.8-6.8
		C9.2,62,9,62.3,8.9,62.7z M59.2,64.3c2.8-1.4,5.7-2.3,8.6-2.8l2-0.2l-0.1,29.8l-1.9-0.2c-2.9-0.5-5.8-1.5-8.7-2.8l-1.3-0.5
		l0.1-22.7L59.2,64.3z M54.1,67.2l1-0.7v19.3l-1-0.7c-3.2-2.2-6.3-5.1-9.1-8.5l-0.3-0.4l0.3-0.4C47.8,72.4,50.9,69.5,54.1,67.2z
		 M33.7,67.9c2.6,2.1,5,4.7,7.4,7.9l0.3,0.4l-0.3,0.4c-2.4,3.1-4.9,5.8-7.4,7.9L32,85.8V66.4L33.7,67.9z M19.3,62.1
		c3.2,0,6.3,0.9,9.4,2.4l0.7,0.5l0.1,22.4l-0.7,0.4c-3.1,1.6-6.3,2.4-9.4,2.5h-1.3l-0.2-28.1L19.3,62.1z"/>
</g>
<path class="st2" d="M66.5,136.8c-3.9-0.1-5.6-2.4-4.9-4.7c2.6-9.5-9.3-20.1-5-31.4c2.8-7.5,30.2-7.6,32,0.2
	c2.7,11.5-7.3,21.5-5.6,30.8c0.5,2.9-1.6,5.6-4.6,5.5L66.5,136.8z"/>
<ellipse class="st2" cx="72.3" cy="74.9" rx="18.1" ry="35.9"/>
<circle class="st3" cx="72.3" cy="36.8" r="13.4"/>
<g>
	<g>
		<g>
			<path class="st1" d="M160.4,47.3h-6.3v-7.8h21.1v7.8h-6.4v28.6h-8.4V47.3z"/>
			<path class="st1" d="M190.5,75.9l-0.4-2.5h-0.1c-1.6,2.1-3.7,3-6.1,3c-4.2,0-7.3-3.5-7.3-8.3c0-7.1,6.5-9.9,12.5-10v-0.5
				c0-1.5-1.3-2.6-3.5-2.6c-2.3,0-4.1,0.6-5.8,1.6l-1.5-5.6c1.6-0.9,5-2.2,9.1-2.2c9.2,0,10.2,6.6,10.2,11.7v9.2
				c0,2.2,0.1,4.3,0.4,6.1H190.5z M189.3,63.3c-2.4,0.1-4.9,1-4.9,3.8c0,2.3,1.3,3.1,2.3,3.1c0.9,0,2-0.4,2.5-1.6
				c0.1-0.3,0.2-0.6,0.2-1.1V63.3z"/>
			<path class="st1" d="M201.9,75.9c0.1-2.7,0.2-5.7,0.2-8.5V38.5h8.3v13.3h0.1c1.2-1.6,2.8-3,5.5-3c5.6,0,7.6,6.3,7.6,12.8
				c0,9.2-3.6,14.6-8.9,14.6c-1.9,0-3.6-0.6-5.2-3.4h-0.1l-0.4,3H201.9z M210.4,66.3c0,0.7,0.2,1.4,0.3,1.7c0.4,1,1.1,1.5,1.8,1.5
				c1.9,0,2.9-2.3,2.9-7.1c0-4.3-1-6.5-2.9-6.5c-0.8,0-1.4,0.6-1.8,1.5c-0.2,0.4-0.3,1.1-0.3,1.6V66.3z"/>
			<path class="st1" d="M235.6,42.3c0.1,2.5-1.8,4.3-4.2,4.3c-2.2,0-4-1.8-4-4.3c-0.1-2.7,1.9-4.4,4.1-4.4
				C233.7,37.9,235.6,39.6,235.6,42.3z M227.4,75.9V49.3h8.4v26.6H227.4z"/>
			<path class="st1" d="M240.3,57.8c0-2.8-0.1-5.8-0.2-8.5h7.2l0.4,3h0.1c1.5-1.9,3.8-3.5,6.5-3.5c3.2,0,5,1.5,5.9,3.5h0.1
				c0.6-0.9,1.7-1.9,2.8-2.5c1.1-0.6,2.4-0.9,3.7-0.9c5.2,0,7.1,4.3,7.1,10.5v16.5h-8.3V60.7c0-2.8-0.3-4.9-1.9-4.9
				c-1,0-1.7,0.6-2.2,1.7c-0.1,0.3-0.2,1-0.2,1.7v16.7h-8.3V59.6c0-1.5-0.1-3.8-1.9-3.8c-0.8,0-1.6,0.5-2.1,1.6
				c-0.2,0.4-0.3,1.1-0.3,1.9v16.6h-8.3V57.8z"/>
			<path class="st1" d="M290.9,75.9l-0.4-2.5h-0.1c-1.6,2.1-3.7,3-6.1,3c-4.2,0-7.3-3.5-7.3-8.3c0-7.1,6.5-9.9,12.5-10v-0.5
				c0-1.5-1.3-2.6-3.5-2.6c-2.3,0-4.1,0.6-5.8,1.6l-1.5-5.6c1.6-0.9,5-2.2,9.1-2.2c9.2,0,10.2,6.6,10.2,11.7v9.2
				c0,2.2,0.1,4.3,0.4,6.1H290.9z M289.7,63.3c-2.4,0.1-4.9,1-4.9,3.8c0,2.3,1.3,3.1,2.3,3.1c0.9,0,2-0.4,2.5-1.6
				c0.1-0.3,0.2-0.6,0.2-1.1V63.3z"/>
			<path d="M303.3,39.5h8.4v29.3h8.9v7.1h-17.3V39.5z"/>
			<path d="M336.4,75.9l-0.4-2.5h-0.1c-1.6,2.1-3.7,3-6.1,3c-4.2,0-7.3-3.5-7.3-8.3c0-7.1,6.5-9.9,12.5-10v-0.5
				c0-1.5-1.3-2.6-3.5-2.6c-2.3,0-4.1,0.6-5.8,1.6l-1.5-5.6c1.6-0.9,5-2.2,9.1-2.2c9.2,0,10.2,6.6,10.2,11.7v9.2
				c0,2.2,0.1,4.3,0.4,6.1H336.4z M335.2,63.3c-2.4,0.1-4.9,1-4.9,3.8c0,2.3,1.3,3.1,2.3,3.1c0.9,0,2-0.4,2.5-1.6
				c0.1-0.3,0.2-0.6,0.2-1.1V63.3z"/>
			<path d="M347.8,75.9c0.1-2.7,0.2-5.7,0.2-8.5V38.5h8.3v13.3h0.1c1.2-1.6,2.8-3,5.5-3c5.6,0,7.6,6.3,7.6,12.8
				c0,9.2-3.6,14.6-8.9,14.6c-1.9,0-3.6-0.6-5.2-3.4h-0.1l-0.4,3H347.8z M356.3,66.3c0,0.7,0.2,1.4,0.3,1.7c0.4,1,1.1,1.5,1.8,1.5
				c1.9,0,2.9-2.3,2.9-7.1c0-4.3-1-6.5-2.9-6.5c-0.8,0-1.4,0.6-1.8,1.5c-0.2,0.4-0.3,1.1-0.3,1.6V66.3z"/>
		</g>
	</g>
</g>
<g>
	<g>
		<g>
			<path class="st1" d="M159.6,82.3h7v1.1h-5.7v8.2h5.3v1.1h-5.3v9.7h-1.3V82.3z"/>
			<path class="st1" d="M176.5,98.9c0,1.6,0.1,2.7,0.1,3.6h-1.2l-0.1-1.5h-0.1c-0.3,0.5-1.3,1.7-2.9,1.7c-2.4,0-3.3-1.9-3.3-5.3
				v-9.3h1.3v9.1c0,2.5,0.4,4.5,2.2,4.5c1.8,0,2.5-1.7,2.6-2.5c0.1-0.5,0.1-0.9,0.1-1.3v-9.7h1.3V98.9z"/>
			<path class="st1" d="M180,91.4c0-1.8-0.1-2.3-0.1-3.3h1.2l0.1,1.8h0.1c0.5-1.2,1.7-2,3.2-2c1.5,0,3.3,1,3.3,4.7v10h-1.3v-9.4
				c0-2-0.4-4.1-2.4-4.1c-1.2,0-2.3,1-2.6,3c-0.1,0.4-0.1,0.8-0.1,1.3v9.3H180V91.4z"/>
			<path class="st1" d="M198.8,88.1c0,0.8-0.1,1.9-0.1,4.4v7.9c0,4.2-0.4,5.5-1.2,6.5c-0.8,1-2,1.5-3.3,1.5c-1.2,0-2.3-0.3-2.9-0.7
				l0.4-1.1c0.5,0.3,1.5,0.7,2.6,0.7c1.7,0,3.1-1,3.1-5v-1.8h-0.1c-0.5,1.3-1.6,1.9-2.8,1.9c-2.1,0-4.1-2.5-4.1-7.2
				c0-5.6,2.5-7.4,4.3-7.4c1.8,0,2.3,1.3,2.7,2h0.1l0.1-1.7H198.8z M197.4,92.9c0-0.4,0-0.7-0.1-1.1c-0.3-1.2-0.9-2.8-2.6-2.8
				c-1.8,0-2.9,2.5-2.9,6.2c0,4.3,1.4,6.2,3,6.2c0.8,0,2-0.4,2.5-2.7c0.1-0.5,0.1-1,0.1-1.4V92.9z"/>
			<path class="st1" d="M207.4,102.5l-0.1-1.6h-0.1c-0.5,1.1-1.5,1.8-2.7,1.8c-1.8,0-3.2-1.5-3.2-4c0-3.5,2.6-5.1,5.9-5.1v-0.5
				c0-2.5-0.4-4.1-2.5-4.1c-0.7,0-1.5,0.3-2,0.7l-0.4-1c0.5-0.4,1.6-0.8,2.7-0.8c2,0,3.5,1.1,3.5,4.6v6.8c0,1,0,2.3,0.1,3.2H207.4z
				 M207.2,94.8c-1.1,0-4.5,0.1-4.5,3.9c0,2.2,1,2.9,2,2.9c1.2,0,2.2-1,2.5-2.7c0.1-0.3,0.1-0.7,0.1-0.9V94.8z"/>
			<path class="st1" d="M212,81.7h1.3v20.8H212V81.7z"/>
			<path class="st1" d="M222.4,94.8c0,5.8,2,6.8,3.6,6.8c0.9,0,1.7-0.2,2.2-0.6l0.3,1c-0.7,0.5-1.7,0.7-2.7,0.7
				c-3.1,0-4.7-3-4.7-7.3c0-4.6,1.7-7.5,4.3-7.5c2.8,0,3.6,3.5,3.6,6.1c0,0.3,0,0.5,0,0.8H222.4z M227.6,93.7
				c0.1-3.5-1.4-4.7-2.5-4.7c-1.7,0-2.6,2.4-2.7,4.7H227.6z"/>
			<path class="st1" d="M231.7,88.1l2.3,9.1c0.2,0.8,0.5,2.1,0.7,3.2h0.1c0.2-1,0.4-2.2,0.6-3.2l2.2-9.1h1.3l-3.7,14.4h-1.1
				l-3.7-14.4H231.7z"/>
			<path class="st1" d="M249,95.3c0,5.3-2.1,7.4-4.3,7.4c-2,0-4.2-2.1-4.2-7.4s2.1-7.4,4.4-7.4C246.9,87.9,249,90,249,95.3z
				 M241.8,95.3c0,2.3,0.5,6.3,2.9,6.3c2.4,0,2.9-4,2.9-6.3s-0.5-6.3-2.9-6.3C242.3,89,241.8,93,241.8,95.3z"/>
			<path class="st1" d="M251.8,81.7h1.3v20.8h-1.3V81.7z"/>
			<path class="st1" d="M264.4,98.9c0,1.6,0.1,2.7,0.1,3.6h-1.2l-0.1-1.5h-0.1c-0.3,0.5-1.3,1.7-2.9,1.7c-2.4,0-3.3-1.9-3.3-5.3
				v-9.3h1.3v9.1c0,2.5,0.4,4.5,2.2,4.5c1.8,0,2.5-1.7,2.6-2.5c0.1-0.5,0.1-0.9,0.1-1.3v-9.7h1.3V98.9z"/>
			<path class="st1" d="M269.6,84.3v3.8h2.7v1.1h-2.7V99c0,2,0.7,2.5,1.5,2.5c0.4,0,0.7,0,0.9-0.1l0.1,1c-0.3,0.1-0.7,0.2-1.3,0.2
				c-0.8,0-1.5-0.2-1.9-0.8c-0.5-0.6-0.6-1.5-0.6-3.3v-9.3h-1.8v-1.1h1.8v-3.3L269.6,84.3z"/>
			<path class="st1" d="M276.1,84.4c0,0.7-0.3,1.1-1,1.1c-0.5,0-0.9-0.4-0.9-1.1c0-0.7,0.4-1.1,1-1.1
				C275.7,83.3,276.1,83.8,276.1,84.4z M274.5,102.5V88.1h1.3v14.4H274.5z"/>
			<path class="st1" d="M287.1,95.3c0,5.3-2.1,7.4-4.3,7.4c-2,0-4.2-2.1-4.2-7.4s2.1-7.4,4.4-7.4C285,87.9,287.1,90,287.1,95.3z
				 M279.9,95.3c0,2.3,0.4,6.3,2.9,6.3c2.4,0,2.9-4,2.9-6.3s-0.5-6.3-2.9-6.3C280.4,89,279.9,93,279.9,95.3z"/>
			<path class="st1" d="M289.9,91.4c0-1.8-0.1-2.3-0.1-3.3h1.2l0.1,1.8h0.1c0.5-1.2,1.7-2,3.2-2c1.5,0,3.3,1,3.3,4.7v10h-1.3v-9.4
				c0-2-0.4-4.1-2.4-4.1c-1.2,0-2.3,1-2.6,3c-0.1,0.4-0.1,0.8-0.1,1.3v9.3h-1.3V91.4z"/>
			<path class="st1" d="M306.3,102.5l-0.1-1.6h-0.1c-0.5,1.1-1.5,1.8-2.7,1.8c-1.8,0-3.2-1.5-3.2-4c0-3.5,2.6-5.1,5.9-5.1v-0.5
				c0-2.5-0.4-4.1-2.5-4.1c-0.7,0-1.5,0.3-2,0.7l-0.4-1c0.5-0.4,1.6-0.8,2.7-0.8c2,0,3.5,1.1,3.5,4.6v6.8c0,1,0,2.3,0.1,3.2H306.3z
				 M306.1,94.8c-1.1,0-4.5,0.1-4.5,3.9c0,2.2,1,2.9,2,2.9c1.2,0,2.2-1,2.5-2.7c0.1-0.3,0.1-0.7,0.1-0.9V94.8z"/>
			<path class="st1" d="M310.9,91.4c0-1.1-0.1-2.4-0.1-3.3h1.2l0.1,2.3h0.1c0.4-1.3,1.6-2.6,3.1-2.6c0.1,0,0.2,0,0.3,0v1.4
				c-0.1,0-0.1,0-0.2,0c-1.9,0-2.9,1.8-3.1,3.6c0,0.4,0,0.8,0,1.2v8.4h-1.3V91.4z"/>
			<path class="st1" d="M317.6,88.1l2.2,8.8c0.3,1.3,0.5,2.3,0.7,3.3h0.1c0.2-0.9,0.5-2.1,0.8-3.3l2-8.8h1.3l-2,8.1
				c-1,4.2-2,8.1-3.8,10.5c-0.9,1.2-1.7,1.9-2.2,2.1l-0.7-1.1c0.7-0.5,1.4-1.2,2.1-2.2c0.6-0.9,1.1-2.1,1.4-2.9
				c0.1-0.4,0.1-0.6,0.1-0.8c0-0.2,0-0.4-0.1-0.5l-3.4-13.3H317.6z"/>
			<path class="st1" d="M339.3,88.1c0,0.8-0.1,1.9-0.1,4.4v7.9c0,4.2-0.4,5.5-1.2,6.5c-0.8,1-2,1.5-3.3,1.5c-1.2,0-2.3-0.3-2.9-0.7
				l0.4-1.1c0.5,0.3,1.5,0.7,2.6,0.7c1.7,0,3.1-1,3.1-5v-1.8h-0.1c-0.5,1.3-1.6,1.9-2.8,1.9c-2.1,0-4.1-2.5-4.1-7.2
				c0-5.6,2.5-7.4,4.3-7.4c1.8,0,2.3,1.3,2.7,2h0.1l0.1-1.7H339.3z M337.9,92.9c0-0.4,0-0.7-0.1-1.1c-0.3-1.2-0.9-2.8-2.6-2.8
				c-1.8,0-2.9,2.5-2.9,6.2c0,4.3,1.4,6.2,3,6.2c0.8,0,2-0.4,2.5-2.7c0.1-0.5,0.1-1,0.1-1.4V92.9z"/>
			<path class="st1" d="M343.3,94.8c0,5.8,2,6.8,3.6,6.8c0.9,0,1.7-0.2,2.2-0.6l0.3,1c-0.7,0.5-1.7,0.7-2.7,0.7
				c-3.1,0-4.7-3-4.7-7.3c0-4.6,1.7-7.5,4.3-7.5c2.8,0,3.6,3.5,3.6,6.1c0,0.3,0,0.5,0,0.8H343.3z M348.5,93.7
				c0.1-3.5-1.4-4.7-2.5-4.7c-1.7,0-2.6,2.4-2.7,4.7H348.5z"/>
			<path class="st1" d="M352.6,91.4c0-1.8-0.1-2.3-0.1-3.3h1.2l0.1,1.8h0.1c0.5-1.2,1.7-2,3.2-2c1.5,0,3.3,1,3.3,4.7v10h-1.3v-9.4
				c0-2-0.4-4.1-2.4-4.1c-1.2,0-2.3,1-2.6,3c-0.1,0.4-0.1,0.8-0.1,1.3v9.3h-1.3V91.4z"/>
			<path class="st1" d="M371.5,95.3c0,5.3-2.1,7.4-4.3,7.4c-2,0-4.2-2.1-4.2-7.4s2.1-7.4,4.4-7.4C369.4,87.9,371.5,90,371.5,95.3z
				 M364.4,95.3c0,2.3,0.5,6.3,2.9,6.3c2.4,0,2.9-4,2.9-6.3s-0.5-6.3-2.9-6.3C364.8,89,364.4,93,364.4,95.3z"/>
			<path class="st1" d="M374.3,91.4c0-1.8-0.1-2.3-0.1-3.3h1.2l0.1,1.8h0.1c0.5-1.2,1.6-2.1,3.1-2.1c1.2,0,2.4,0.6,2.9,2.3h0.1
				c0.4-0.8,0.9-1.4,1.4-1.8c0.6-0.4,1.2-0.6,2-0.6c1.6,0,3.3,1,3.3,4.8v9.8H387v-9.4c0-2-0.3-4.2-2.4-4.2c-1.1,0-2.2,1-2.5,2.7
				c-0.1,0.5-0.1,1-0.1,1.5v9.4h-1.3v-9.7c0-1.9-0.4-3.8-2.4-3.8c-1.2,0-2.3,1-2.6,3c-0.1,0.5-0.1,0.9-0.1,1.3v9.2h-1.3V91.4z"/>
			<path class="st1" d="M393.5,84.4c0,0.7-0.3,1.1-1,1.1c-0.5,0-0.9-0.4-0.9-1.1c0-0.7,0.4-1.1,1-1.1
				C393.1,83.3,393.5,83.8,393.5,84.4z M391.8,102.5V88.1h1.3v14.4H391.8z"/>
			<path class="st1" d="M403.1,102.1c-0.6,0.4-1.4,0.6-2.3,0.6c-2.8,0-4.8-2.6-4.8-7.4c0-3.9,1.8-7.5,5.1-7.5c0.7,0,1.5,0.2,2,0.5
				l-0.4,1.1c-0.3-0.2-0.9-0.5-1.8-0.5c-2.6,0-3.6,3.4-3.6,6.4c0,3.8,1.4,6.1,3.7,6.1c0.7,0,1.2-0.1,1.8-0.5L403.1,102.1z"/>
			<path class="st1" d="M404.8,100.8c0.5,0.3,1.3,0.8,2.2,0.8c1.5,0,2.5-1,2.5-2.6c0-1.3-0.4-2.2-2-3.4c-1.6-1.1-2.9-2.2-2.9-4.1
				c0-2.2,1.7-3.6,3.5-3.6c1.1,0,1.9,0.4,2.3,0.8l-0.6,1c-0.5-0.4-1.1-0.7-1.9-0.7c-1.4,0-2.1,1.1-2.1,2.2c0,1.2,0.4,1.8,1.9,2.9
				c1.4,1,3,2.2,3,4.4c0,2.8-1.9,4.1-3.9,4.1c-1,0-2-0.3-2.6-0.8L404.8,100.8z"/>
		</g>
	</g>
</g>
</svg>
