<?xml version="1.0" encoding="utf-8"?>
<!-- Generator: Adobe Illustrator 25.1.0, SVG Export Plug-In . SVG Version: 6.00 Build 0)  -->
<svg version="1.1" id="Layer_1" xmlns="http://www.w3.org/2000/svg" xmlns:xlink="http://www.w3.org/1999/xlink" x="0px" y="0px"
	 viewBox="0 0 146.9 143.4" style="enable-background:new 0 0 146.9 143.4;" xml:space="preserve">
<style type="text/css">
	.st0{fill:#F0EFEC;stroke:#000000;stroke-width:7;stroke-miterlimit:10;}
	.st1{fill:#29ABE2;}
	.st2{fill:#FFFFFF;stroke:#000000;stroke-width:7;stroke-miterlimit:10;}
	.st3{fill:#C7B299;stroke:#000000;stroke-width:7;stroke-miterlimit:10;}
</style>
<circle class="st0" cx="72.3" cy="74.1" r="63.4"/>
<g>
	<path class="st1" d="M134.5,88.7c0.1-0.3,0-0.6-0.2-0.9c-0.3-0.5-1.1-0.7-1.6-0.4c-0.4,0.2-1.5,0.8-3.1,1.2l-0.8,0.2V63.4l0.8,0.2
		c1.9,0.5,3,1.2,3.1,1.3c0.6,0.3,1.3,0.2,1.6-0.4c0.3-0.5,0.2-1.3-0.4-1.6c-0.2-0.1-15.4-8.9-30.7,10.8l-0.5,0.6l-0.5-0.6
		c-0.9-1-1.8-2-2.7-2.9C85.5,56.6,71.3,60,70.7,60.2c-0.5,0.1-0.9,0.6-0.9,1.1c0,0.1,0,0.2,0,0.3c0.1,0.5,0.9,1,1.4,0.8
		c0.3-0.1,1.7-0.4,3.9-0.4h0.6v28.1h-0.6c-2.2,0-3.6-0.3-3.9-0.4c-0.6-0.2-1.3,0.2-1.5,0.9c0,0.1,0,0.2,0,0.3c0,0.3,0.1,0.6,0.4,0.8
		c0.2,0.2,0.3,0.3,0.5,0.3c0.7,0.2,16.7,4,31.6-13.5l0.5-0.6l0.5,0.6c1.3,1.6,2.6,3.1,3.9,4.5l0,0c14,14,26.7,6.4,26.8,6.3
		C134.2,89.2,134.4,89,134.5,88.7z M87.8,87.2c-2.6,1.3-5.3,2.1-8,2.6L78,89.9V62.3l1.8,0.2c2.7,0.5,5.4,1.3,8.1,2.6l1.2,0.4
		l-0.1,21L87.8,87.2z M92.5,84.4l-0.9,0.7V67.2l0.9,0.7c3,2.1,5.9,4.8,8.5,7.9l0.3,0.4l-0.3,0.4C98.3,79.7,95.5,82.3,92.5,84.4z
		 M111.5,83.8c-2.4-1.9-4.7-4.4-6.9-7.3l-0.3-0.4l0.3-0.4c2.2-2.9,4.5-5.4,6.9-7.3l1.6-1.3v18L111.5,83.8z M124.9,89.2
		c-2.9,0-5.9-0.8-8.7-2.3l-0.7-0.5l-0.1-20.8l0.7-0.4c2.9-1.5,5.8-2.3,8.7-2.3h1.2l0.2,26.1L124.9,89.2z"/>
</g>
<g>
	<path class="st1" d="M8.9,62.7c-0.1,0.3,0,0.7,0.2,0.9c0.4,0.6,1.2,0.8,1.8,0.4c0.4-0.2,1.6-0.9,3.3-1.3l0.8-0.2v27.4l-0.8-0.2
		c-2.1-0.6-3.3-1.3-3.3-1.4c-0.6-0.4-1.4-0.2-1.8,0.4c-0.4,0.6-0.2,1.4,0.4,1.8c0.2,0.1,16.6,9.6,33.1-11.6l0.5-0.6l0.5,0.6
		c0.9,1.1,1.9,2.1,2.9,3.1C61.7,97.2,77,93.5,77.6,93.3c0.6-0.1,1-0.7,1-1.2c0-0.1,0-0.2,0-0.3c-0.1-0.6-1-1-1.5-0.9
		c-0.3,0.1-1.8,0.4-4.2,0.4h-0.7V61.1h0.7c2.4,0,3.9,0.4,4.2,0.4c0.7,0.2,1.4-0.2,1.6-0.9c0-0.1,0-0.2,0-0.3c0-0.3-0.2-0.7-0.4-0.9
		C78,59.1,77.8,59,77.6,59c-0.7-0.2-18-4.3-34.1,14.5L43,74.1l-0.5-0.6c-1.4-1.8-2.8-3.4-4.2-4.8l0,0c-15-15.1-28.7-6.9-28.8-6.8
		C9.2,62,9,62.3,8.9,62.7z M59.2,64.3c2.8-1.4,5.7-2.3,8.6-2.8l2-0.2l-0.1,29.8l-1.9-0.2c-2.9-0.5-5.8-1.5-8.7-2.8l-1.3-0.5
		l0.1-22.7L59.2,64.3z M54.1,67.2l1-0.7v19.3l-1-0.7c-3.2-2.2-6.3-5.1-9.1-8.5l-0.3-0.4l0.3-0.4C47.8,72.4,50.9,69.5,54.1,67.2z
		 M33.7,67.9c2.6,2.1,5,4.7,7.4,7.9l0.3,0.4l-0.3,0.4c-2.4,3.1-4.9,5.8-7.4,7.9L32,85.8V66.4L33.7,67.9z M19.3,62.1
		c3.2,0,6.3,0.9,9.4,2.4l0.7,0.5l0.1,22.4l-0.7,0.4c-3.1,1.6-6.3,2.4-9.4,2.5h-1.3l-0.2-28.1L19.3,62.1z"/>
</g>
<path class="st2" d="M66.5,136.8c-3.9-0.1-5.6-2.4-4.9-4.7c2.6-9.5-9.3-20.1-5-31.4c2.8-7.5,30.2-7.6,32,0.2
	c2.7,11.5-7.3,21.5-5.6,30.8c0.5,2.9-1.6,5.6-4.6,5.5L66.5,136.8z"/>
<ellipse class="st2" cx="72.3" cy="74.9" rx="18.1" ry="35.9"/>
<circle class="st3" cx="72.3" cy="36.8" r="13.4"/>
</svg>
